<svg xmlns="http://www.w3.org/2000/svg" viewBox="0 0 1147.9 252.64"><defs><style>.cls-1{fill:#333;}.cls-2{fill:#1e69ff;}</style></defs><title>pp_logo_svg</title><g id="Layer_2" data-name="Layer 2"><g id="Layer_1-2" data-name="Layer 1"><path class="cls-1" d="M406.7,53.09H458c10.46,0,18.43,2.49,23.69,7.56s8,11.92,8,20.49a50.61,50.61,0,0,1-1,10.35c-2.58,11.81-8,21-15.94,27.75s-18.63,10.13-31.58,10.13H410.07l-8.19,38.81H382.32ZM440.77,114C456.6,114,466,106.39,469,91.38a54.32,54.32,0,0,0,1-9.83c0-4.77-1.35-8.19-3.95-10.24s-7.15-3.1-13.45-3.1H423L413.35,114Z"/><path class="cls-1" d="M497.38,164c-4.46-4-6.73-9.83-6.73-17.39a46.4,46.4,0,0,1,1-9.61L503,83.44h19.45l-11.18,53.41a36.77,36.77,0,0,0-.93,7.15c0,4.13,1.23,7.14,3.73,8.79s6.51,2.49,12.1,2.49a36.1,36.1,0,0,0,13.56-2.57,41.88,41.88,0,0,0,12.11-7.26l13.25-62h19.26L566.4,168.1H548.71l.93-8.79a58.94,58.94,0,0,1-33.74,10.54C508,170,501.82,168,497.38,164Z"/><path class="cls-1" d="M606.67,83.44h17.91l-.93,8.9q15.69-10.73,32-10.76c5.69,0,10.05.93,13,2.79a16.57,16.57,0,0,1,6.63,8.27,60.61,60.61,0,0,1,16.05-8.19,57.73,57.73,0,0,1,18.33-2.9c7.66,0,13.44,1.64,17.39,5.07s6,8.6,6,15.42a61.09,61.09,0,0,1-1.24,10L720,168H700.86l11.47-53.93a41.58,41.58,0,0,0,.93-7.34c0-3.73-1.15-6.33-3.42-8s-6-2.38-11.28-2.38a32.45,32.45,0,0,0-12.11,2.27A33.45,33.45,0,0,0,675.9,105a43,43,0,0,1-1,8.79L663.39,168.1h-18l11.28-53.82a35.86,35.86,0,0,0,1-7.86c0-3.43-1-6-2.9-7.56s-5.18-2.38-9.53-2.38a29.38,29.38,0,0,0-12.11,2.79,56.57,56.57,0,0,0-12,7.26l-13,61.68H589Z"/><path class="cls-1" d="M743.5,142.22a74.66,74.66,0,0,1,1.45-13,64.3,64.3,0,0,1,10.47-25.25,52.6,52.6,0,0,1,18.1-16.57,45.93,45.93,0,0,1,22.35-5.7,43.77,43.77,0,0,1,13,1.75A30.45,30.45,0,0,1,819,89.3l1.23-5.89h19.45l-17.92,84.66H805.15l.3-8.38a45.87,45.87,0,0,1-14.29,7.75,51.53,51.53,0,0,1-16.46,2.38C754,170,743.5,160.76,743.5,142.22Zm63.35,4.13,8.9-42a23.71,23.71,0,0,0-7.56-5.89,22.73,22.73,0,0,0-10.13-2c-8.6,0-15.72,2.79-21.42,8.49s-9.72,13.77-12,24.43A56,56,0,0,0,763,141.2c0,5.29,1.56,8.9,4.66,11s8.27,3.1,15.53,3.1A36,36,0,0,0,806.85,146.35Z"/><path class="cls-1" d="M868.86,53.09H920.1c10.47,0,18.44,2.49,23.7,7.56s8,11.92,8,20.49a50.61,50.61,0,0,1-1,10.35c-2.58,11.81-8,21-15.94,27.75s-18.44,10.13-31.47,10.13H872.26l-8.19,38.81H844.51Zm34,60.86c15.84,0,25.26-7.56,28.27-22.57a54.32,54.32,0,0,0,1-9.83c0-4.77-1.34-8.19-3.94-10.24s-7-3.1-13.45-3.1H885L875.41,114Z"/><path class="cls-1" d="M949.79,142.22a73.83,73.83,0,0,1,1.46-13,64.28,64.28,0,0,1,10.46-25.25,52.69,52.69,0,0,1,18.1-16.57,45.93,45.93,0,0,1,22.35-5.7,43.77,43.77,0,0,1,13,1.75,30.45,30.45,0,0,1,10,5.89l1.23-5.89h19.45L1028,168.07h-16.65l.3-8.38a46,46,0,0,1-14.3,7.75,51.48,51.48,0,0,1-16.46,2.38C960.26,170,949.79,160.76,949.79,142.22Zm63.25,4.13,8.9-42a23.93,23.93,0,0,0-7.56-5.89,22.8,22.8,0,0,0-10.14-2c-8.6,0-15.72,2.79-21.41,8.49s-9.73,13.77-12,24.43a56.56,56.56,0,0,0-1.64,11.8c0,5.29,1.56,8.9,4.65,11s8.27,3.1,15.53,3.1A36,36,0,0,0,1013,146.35Z"/><path class="cls-1" d="M1064.06,199.05a82.32,82.32,0,0,1-10.13-1.24l3.42-15.52a48.84,48.84,0,0,0,8.79,1.64,86.83,86.83,0,0,0,9.62.63c10,0,18.21-1.56,24.73-4.66s10.35-8,11.69-14.49l1.24-6.1a58.63,58.63,0,0,1-33.64,10.54q-11.79,0-18.62-6.22c-4.55-4.13-6.82-10-6.82-17.69a40.33,40.33,0,0,1,1-9.12l11.28-53.41h19.45l-11.28,53.41a37,37,0,0,0-.94,7.15c0,3.94,1.24,6.82,3.62,8.6s6.52,2.68,12.21,2.68a36.06,36.06,0,0,0,13.56-2.57,41.74,41.74,0,0,0,12.11-7.26l13.25-62h19.26l-16.76,79a43.31,43.31,0,0,1-17.4,26.93c-9.31,6.82-22.15,10.24-38.28,10.24C1072.55,199.57,1068.61,199.46,1064.06,199.05Z"/><polygon class="cls-2" points="35.8 134.31 0 252.64 76.94 252.64 112.73 134.31 35.8 134.31"/><path class="cls-2" d="M270.19,0H174.74L150.69,78.72h85.73c15.23,0,24,12.46,19.31,27.8s-21,27.8-36.26,27.8H133.66l-1.56,5.12L109.61,213H205c58.67,0,121.12-47.76,139-106.43C362,47.74,328.86,0,270.19,0"/><polygon class="cls-2" points="153.79 0 76.77 0 52.75 78.72 129.77 78.72 153.79 0"/></g></g></svg>